<?xml version="1.0" ?><svg id="Layer_2" style="enable-background:new 0 0 512 512;" version="1.1" viewBox="0 0 512 512" xml:space="preserve" xmlns="http://www.w3.org/2000/svg" xmlns:xlink="http://www.w3.org/1999/xlink"><style type="text/css">
	.st0{fill:none;stroke:#5f5f5f;stroke-width:20;stroke-linecap:square;stroke-miterlimit:10;}
</style><path class="st0" d="M469,469H213v0c0-23.2,18.8-42,42-42h201c7.2,0,13,5.8,13,13V469z"/><polyline class="st0" points="426,423 340,43 255,43 212,86 "/><path class="st0" d="M211.8,220.2L87.9,148.7l18.6-32.3c19.7-34.2,63.5-45.9,97.7-26.2l0,0c34.2,19.7,45.9,63.5,26.2,97.7  L211.8,220.2z"/><path class="st0" d="M177.7,201.3c-9.5,16.6-30.8,22.4-47.4,12.9s-22.4-30.8-12.9-47.4"/></svg>